# xmcd
#
# Track frame offsets:
#	150
#	15700
#	31132
#	45228
#	66457
#	95782
#	111952
#	125330
#	143814
#	170647
#
# Disc length: 2478 seconds
#
# Revision: 1
# Processed by: cddbd v1.4PL0 Copyright (c) Steve Scherf et al.
# Submitted via: CDmax 2.0
#
DISCID=8809ac0a
DTITLE=Blinn, Scottie - Hoodoo Charm
DYEAR=1999
DGENRE=Blues
TTITLE0=Made In The Shade
TTITLE1=Keep On Tryin'
TTITLE2=Mr. Moto
TTITLE3=Chase Was On
TTITLE4=Hoodoo Charm
TTITLE5=Slicker Than Grease
TTITLE6=Enchanted
TTITLE7=Can I Walk You Home
TTITLE8=Japengo
TTITLE9=Brotherhood
EXTD=
EXTT0=
EXTT1=
EXTT2=
EXTT3=
EXTT4=
EXTT5=
EXTT6=
EXTT7=
EXTT8=
EXTT9=
PLAYORDER=
